<?xml version="1.0" encoding="UTF-8"?>
<svg id="Layer_2" data-name="Layer 2" xmlns="http://www.w3.org/2000/svg" viewBox="0 0 191.29 256.31">
  <g id="Layer_1-2" data-name="Layer 1">
    <g>
      <path d="M17.71.04l117.1-.04,55.97,55.63.5,179.88c-1.27,11.18-9.23,18.52-20.37,19.48-48.31,4.16-102.53-3.19-151.46-.03-10.72-1.39-18.96-9.38-19.45-20.4L.05,19.24C1.07,9.15,7.96,2.19,17.71.04ZM127.55,10.76H17.47c-2.21,0-7.63,6.49-6.52,9.42v214.4c-.24,3.88,2.13,6.82,5.29,8.67l154.69.8c2.93,1.11,9.42-4.32,9.42-6.53V63.59h-35.36c-6.37,0-17.43-11.07-17.43-17.44V10.76ZM172.37,52.62l-33.87-33.89v27.41c0,1.27,5.2,6.48,6.48,6.48h27.39Z"/>
      <path d="M36.61,116.63l116.36-.24c8.03.17,8.99,10.02,1.03,11.04H37.34c-6.79-.8-7.66-9.28-.73-10.8Z"/>
      <path d="M36.61,148.53l116.36-.24c8.03.17,8.99,10.02,1.03,11.04H37.34c-6.79-.8-7.66-9.28-.73-10.8Z"/>
      <path d="M36.61,180.42l116.36-.24c8.03.17,8.99,10.02,1.03,11.04H37.34c-6.79-.8-7.66-9.28-.73-10.8Z"/>
      <path d="M62.55,43.89c1.62,1.62,1.61,6.52-.42,7.82-4.19,2.67-17.27-1.74-19.1,4.61-2.58,8.94,8.42,6.36,13.74,9.81,7.46,4.83,9.36,15.74,4.04,22.89-1.91,2.57-7.2,4.92-7.71,5.74-1.56,2.49-.26,7.83-7.54,5.53-2.91-.92-2.25-4.15-2.82-4.66-.81-.73-13.38,1.59-10.66-7.41,2.2-7.28,18.76-.35,20.56-6.39,2.5-8.36-5.63-6.93-10.74-8.79-9.63-3.52-12.96-15.54-7-23.9,1.92-2.7,5.02-3.9,7-5.95,1.59-1.65,1.13-5.09,4.93-6.1,4.48-1.19,5.62,4.71,7.66,5.41s6.19-.46,8.06,1.4Z"/>
      <path d="M89.41,84.73l64.48-.16c5.71.93,7.76,6.14,3.11,9.97l-67.78.92c-2.59-.43-4.05-3.04-4.43-5.46.28-2.68,2-4.66,4.62-5.27Z"/>
      <path d="M36.61,212.32c19.98,1.33,44.06-2.52,63.56-.23,3.56.42,5.86,1.7,6.38,5.5-.38,2.41-1.84,5.03-4.43,5.46l-64.78.07c-6.79-.8-7.66-9.28-.73-10.8Z"/>
    </g>
  </g>
</svg>